<svg width="64" height="64" viewBox="0 0 64 64" fill="none" xmlns="http://www.w3.org/2000/svg">
<g clip-path="url(#clip0_84_954)">
<path d="M64 0H0V64H64V0Z" fill="#700032"/>
<path d="M53.414 18.509L31.9996 7.80821C31.398 7.51381 30.694 7.56501 30.1436 7.96181L10.3292 22.4258C9.86841 22.7586 9.59961 23.2962 9.59961 23.8722V43.0978C9.59961 43.789 9.99641 44.4162 10.6236 44.7106L34.8028 56.205C34.8156 56.205 34.8284 56.205 34.8412 56.2178C34.9308 56.2562 35.0204 56.2818 35.11 56.3074C35.1356 56.3202 35.174 56.333 35.1996 56.333C35.3148 56.3586 35.4428 56.3714 35.5708 56.3714C35.686 56.3714 35.7884 56.3586 35.9036 56.333C35.942 56.3202 35.9804 56.3074 36.0188 56.3074C36.0828 56.2946 36.1468 56.269 36.2108 56.2434C36.2492 56.2306 36.2876 56.205 36.3388 56.1922C36.39 56.1666 36.454 56.141 36.5052 56.1026C36.5436 56.077 36.582 56.0514 36.6204 56.0258C36.646 56.013 36.6716 56.0002 36.6844 55.9874L53.734 42.3554C54.1564 42.0226 54.3996 41.4978 54.3996 40.9602V20.0962C54.3996 19.4306 54.0156 18.8162 53.414 18.509ZM13.1708 24.781L17.6636 21.5042L20.2492 25.1138C20.5308 25.4978 20.9532 25.7666 21.4268 25.8434C21.9004 25.9202 22.3868 25.7922 22.7708 25.5106L29.0812 20.7874L33.7916 29.1202V51.789L13.1708 41.9842V24.781ZM50.8284 40.1026L37.35 50.8802V28.6338C37.35 28.3266 37.2732 28.0194 37.1196 27.7506L31.1676 17.2418C30.9116 16.7938 30.4764 16.4738 29.9772 16.3714C29.478 16.269 28.9532 16.3842 28.5436 16.6914L22.0668 21.5426L20.5308 19.3922L31.3724 11.4818L50.8284 21.2098V40.1026Z" fill="white"/>
</g>
<defs>
<clipPath id="clip0_84_954">
<rect width="64" height="64" fill="white"/>
</clipPath>
</defs>
</svg>
