<svg width="106" height="32" viewBox="0 0 106 32" fill="none" xmlns="http://www.w3.org/2000/svg">
<g clip-path="url(#clip0_134_3805)">
<path d="M32 0H0V32H32V0Z" fill="#700032"/>
<path d="M26.708 9.25402L16.0008 3.90361C15.7 3.75641 15.348 3.78201 15.0728 3.98041L5.16558 11.2124C4.93518 11.3788 4.80078 11.6476 4.80078 11.9356V21.5484C4.80078 21.894 4.99918 22.2076 5.31278 22.3548L17.4024 28.102C17.4088 28.102 17.4152 28.102 17.4216 28.1084C17.4664 28.1276 17.5112 28.1404 17.556 28.1532C17.5688 28.1596 17.588 28.166 17.6008 28.166C17.6584 28.1788 17.7224 28.1852 17.7864 28.1852C17.844 28.1852 17.8952 28.1788 17.9528 28.166C17.972 28.1596 17.9912 28.1532 18.0104 28.1532C18.0424 28.1468 18.0744 28.134 18.1064 28.1212C18.1256 28.1148 18.1448 28.102 18.1704 28.0956C18.196 28.0828 18.228 28.07 18.2536 28.0508C18.2728 28.038 18.292 28.0252 18.3112 28.0124C18.324 28.006 18.3368 27.9996 18.3432 27.9932L26.868 21.1772C27.0792 21.0108 27.2008 20.7484 27.2008 20.4796V10.0476C27.2008 9.71482 27.0088 9.40762 26.708 9.25402ZM6.58638 12.39L8.83278 10.7516L10.1256 12.5564C10.2664 12.7484 10.4776 12.8828 10.7144 12.9212C10.9512 12.9596 11.1944 12.8956 11.3864 12.7548L14.5416 10.3932L16.8968 14.5596V25.894L6.58638 20.9916V12.39ZM25.4152 20.0508L18.676 25.4396V14.3164C18.676 14.1628 18.6376 14.0092 18.5608 13.8748L15.5848 8.62041C15.4568 8.39641 15.2392 8.23641 14.9896 8.18521C14.74 8.13402 14.4776 8.19161 14.2728 8.34521L11.0344 10.7708L10.2664 9.69561L15.6872 5.74041L25.4152 10.6044V20.0508Z" fill="white"/>
</g>
<path d="M41.6055 16.4268C41.6055 15.2549 41.8672 14.2081 42.3905 13.2865C42.9253 12.3535 43.6478 11.6311 44.558 11.1191C45.4796 10.5957 46.5093 10.334 47.6471 10.334C48.9783 10.334 50.1445 10.6753 51.1457 11.358C52.147 12.0407 52.8467 12.985 53.2449 14.1911H50.4972C50.2241 13.6222 49.8373 13.1955 49.3367 12.9111C48.8474 12.6266 48.2785 12.4844 47.63 12.4844C46.936 12.4844 46.3159 12.6494 45.7697 12.9793C45.235 13.2979 44.814 13.753 44.5068 14.3447C44.211 14.9363 44.0631 15.6303 44.0631 16.4268C44.0631 17.2119 44.211 17.9059 44.5068 18.5089C44.814 19.1006 45.235 19.5614 45.7697 19.8913C46.3159 20.2099 46.936 20.3692 47.63 20.3692C48.2785 20.3692 48.8474 20.227 49.3367 19.9425C49.8373 19.6467 50.2241 19.2143 50.4972 18.6455H53.2449C52.8467 19.8629 52.147 20.8129 51.1457 21.4956C50.1559 22.1669 48.9896 22.5025 47.6471 22.5025C46.5093 22.5025 45.4796 22.2465 44.558 21.7345C43.6478 21.2111 42.9253 20.4887 42.3905 19.5671C41.8672 18.6455 41.6055 17.5987 41.6055 16.4268Z" fill="black"/>
<path d="M61.0884 22.4001L58.4601 17.758H57.3337V22.4001H54.9444V10.4876H59.4159C60.3375 10.4876 61.1225 10.6526 61.7711 10.9825C62.4196 11.3011 62.9032 11.7391 63.2217 12.2967C63.5517 12.8428 63.7167 13.4572 63.7167 14.1399C63.7167 14.9249 63.4891 15.636 63.034 16.2732C62.5789 16.899 61.9019 17.3313 61.0031 17.5703L63.8532 22.4001H61.0884ZM57.3337 15.966H59.3305C59.9791 15.966 60.4626 15.8124 60.7812 15.5052C61.0998 15.1866 61.2591 14.7486 61.2591 14.1911C61.2591 13.6449 61.0998 13.2239 60.7812 12.9281C60.4626 12.6209 59.9791 12.4673 59.3305 12.4673H57.3337V15.966Z" fill="black"/>
<path d="M67.9257 12.4161V15.4028H71.9364V17.2972H67.9257V20.4545H72.4484V22.4001H65.5364V10.4705H72.4484V12.4161H67.9257Z" fill="black"/>
<path d="M81.5829 20.1303H76.8384L76.0533 22.4001H73.5445L77.8283 10.4705H80.6101L84.8939 22.4001H82.368L81.5829 20.1303ZM80.9344 18.2188L79.2107 13.2353L77.4869 18.2188H80.9344Z" fill="black"/>
<path d="M94.8407 14.174C94.8407 14.8111 94.6871 15.4085 94.3799 15.966C94.0841 16.5235 93.6119 16.9729 92.9633 17.3143C92.3262 17.6556 91.5184 17.8263 90.5399 17.8263H88.5431V22.4001H86.1537V10.4876H90.5399C91.4615 10.4876 92.2465 10.6469 92.8951 10.9655C93.5436 11.284 94.0272 11.7221 94.3457 12.2796C94.6757 12.8371 94.8407 13.4686 94.8407 14.174ZM90.4375 15.8977C91.0974 15.8977 91.5866 15.7498 91.9052 15.454C92.2238 15.1468 92.3831 14.7201 92.3831 14.174C92.3831 13.0135 91.7345 12.4332 90.4375 12.4332H88.5431V15.8977H90.4375Z" fill="black"/>
<path d="M104.883 14.174C104.883 14.8111 104.729 15.4085 104.422 15.966C104.126 16.5235 103.654 16.9729 103.005 17.3143C102.368 17.6556 101.56 17.8263 100.582 17.8263H98.5851V22.4001H96.1957V10.4876H100.582C101.503 10.4876 102.289 10.6469 102.937 10.9655C103.586 11.284 104.069 11.7221 104.388 12.2796C104.718 12.8371 104.883 13.4686 104.883 14.174ZM100.479 15.8977C101.139 15.8977 101.629 15.7498 101.947 15.454C102.266 15.1468 102.425 14.7201 102.425 14.174C102.425 13.0135 101.777 12.4332 100.479 12.4332H98.5851V15.8977H100.479Z" fill="black"/>
<defs>
<clipPath id="clip0_134_3805">
<rect width="32" height="32" fill="white"/>
</clipPath>
</defs>
</svg>
